<?xml version="1.0" standalone="no"?>
<!DOCTYPE svg PUBLIC "-//W3C//DTD SVG 20010904//EN"
 "http://www.w3.org/TR/2001/REC-SVG-20010904/DTD/svg10.dtd">
<svg version="1.0" xmlns="http://www.w3.org/2000/svg"
 width="840.000000pt" height="859.000000pt" viewBox="0 0 840.000000 859.000000"
 preserveAspectRatio="xMidYMid meet">

<g transform="translate(0.000000,859.000000) scale(0.100000,-0.100000)"
fill="#000000" stroke="none">
<path d="M3875 7161 c-70 -25 -85 -34 -121 -73 -84 -90 -105 -170 -109 -408
-1 -96 -8 -193 -14 -215 l-11 -41 -72 0 c-146 -1 -365 -101 -524 -240 -60 -52
-171 -184 -209 -249 -38 -64 -99 -160 -110 -172 -5 -6 -30 -41 -55 -77 -124
-183 -237 -321 -286 -349 -109 -65 -414 -220 -602 -308 -69 -32 -71 -34 -44
-40 16 -3 106 -12 201 -19 94 -7 171 -17 171 -22 0 -5 -17 -32 -38 -61 -107
-148 -161 -243 -195 -345 -19 -59 -22 -88 -21 -247 0 -149 4 -194 21 -261 20
-76 20 -95 12 -280 -10 -231 -28 -497 -35 -503 -2 -2 -4 1 -4 6 0 6 -21 23
-47 38 -168 93 -452 164 -911 226 -79 10 -95 16 -103 33 -6 12 -42 39 -80 61
-174 99 -154 91 -196 76 -75 -27 -144 -107 -269 -311 -25 -41 -68 -110 -95
-153 -78 -122 -94 -173 -94 -297 0 -97 2 -110 30 -165 26 -52 34 -60 61 -63
28 -3 33 2 63 57 62 118 173 213 364 316 l89 47 71 -16 c40 -8 104 -20 144
-25 72 -11 243 -54 264 -66 6 -4 32 -13 57 -20 26 -7 137 -48 247 -90 110 -42
218 -83 240 -90 22 -8 74 -26 115 -40 100 -35 231 -65 281 -65 76 0 141 50
217 165 87 133 167 312 237 536 20 63 38 120 41 127 6 20 18 8 47 -50 44 -90
92 -222 132 -365 l17 -62 -32 -48 c-88 -129 -168 -306 -290 -638 -72 -195 -98
-264 -110 -290 -68 -147 -100 -297 -99 -457 0 -62 4 -135 7 -163 l7 -50 44 -3
c25 -2 115 4 200 12 86 9 188 18 227 22 40 3 125 0 195 -7 68 -8 151 -14 184
-14 122 0 201 59 161 120 -19 28 -31 32 -141 39 -118 8 -329 64 -392 104 -30
19 -30 59 2 152 14 40 25 86 25 102 0 32 30 144 55 203 28 66 116 239 131 256
8 8 14 19 14 23 0 5 84 134 186 288 267 401 271 409 249 541 -13 79 -67 249
-105 332 -10 22 -33 74 -50 115 -31 71 -95 208 -217 459 l-56 114 18 51 c10
28 26 68 37 88 10 21 18 43 18 49 0 23 61 141 99 193 21 28 61 71 89 96 108
96 109 97 180 66 32 -15 102 -32 159 -41 152 -22 430 -30 545 -16 97 12 97 12
135 -13 21 -14 43 -26 50 -26 6 0 25 16 41 35 l29 35 248 -2 249 -3 22 -85
c29 -113 98 -375 124 -475 29 -108 70 -267 120 -460 23 -88 50 -194 61 -235
11 -41 38 -142 59 -225 21 -82 51 -195 65 -250 15 -55 42 -163 61 -240 19 -77
41 -165 49 -195 78 -298 109 -442 97 -458 -79 -110 -112 -197 -112 -296 0
-303 310 -526 590 -426 99 36 151 73 212 150 110 139 128 322 48 476 l-38 74
380 0 c362 0 380 -1 366 -17 -63 -72 -95 -214 -74 -334 57 -322 410 -474 689
-296 97 62 165 168 192 298 14 69 14 83 1 150 -32 149 -124 271 -253 332 l-68
32 -880 3 c-532 1 -883 6 -889 12 -11 11 -145 542 -139 553 2 4 551 7 1219 7
l1214 0 10 23 c6 12 26 85 46 162 33 130 56 218 106 405 11 41 30 116 43 165
13 50 33 126 45 170 41 156 71 271 84 325 15 61 60 226 76 280 5 19 10 36 10
37 0 2 -735 3 -1634 3 l-1634 0 -17 68 c-10 37 -26 96 -35 132 -10 36 -28 103
-40 150 -12 47 -27 103 -33 125 l-12 40 -287 -3 c-279 -2 -288 -2 -288 17 0
33 -11 51 -43 67 -50 26 -150 35 -262 24 -90 -9 -112 -8 -186 9 -130 31 -214
82 -249 151 -29 57 -25 76 25 132 112 125 156 265 181 580 l6 87 70 63 c91 81
128 108 150 108 9 0 40 -9 68 -20 65 -26 105 -25 131 1 15 15 20 30 16 52 -2
19 2 41 10 54 9 13 13 30 9 38 -3 9 3 24 14 35 11 11 20 33 20 51 0 26 3 29
20 24 50 -16 65 46 29 116 -18 36 -19 46 -9 93 8 38 8 72 1 117 -16 96 -16 96
20 91 l32 -5 -7 39 c-17 93 -108 204 -199 244 -117 52 -277 65 -372 31z m2723
-3127 l2 -241 -332 -6 c-183 -4 -336 -3 -341 2 -7 7 -42 132 -71 261 -7 30
-20 80 -29 110 -32 116 -34 109 25 112 29 2 208 3 398 3 l345 0 3 -241z m997
229 c-9 -24 -55 -195 -71 -268 -8 -33 -23 -89 -33 -125 l-18 -65 -369 -5
c-203 -3 -372 -4 -376 -2 -5 2 -8 111 -8 243 l0 239 441 0 c416 0 441 -1 434
-17z m555 9 c0 -8 -13 -58 -67 -262 -13 -52 -30 -117 -37 -145 l-12 -50 -217
-5 c-153 -4 -217 -2 -217 6 0 6 9 44 19 85 11 41 36 137 56 214 20 77 38 146
40 153 3 9 56 12 220 12 118 0 215 -4 215 -8z m-2464 -39 c4 -21 11 -46 15
-55 5 -9 15 -45 23 -80 8 -35 28 -118 46 -186 18 -68 30 -125 28 -127 -2 -3
-117 -7 -254 -11 l-250 -6 -21 73 c-12 41 -31 112 -43 159 -12 47 -30 114 -40
150 -10 36 -21 77 -24 93 l-6 27 259 0 260 0 7 -37z m2310 -560 c-3 -10 -16
-61 -30 -113 -56 -216 -107 -408 -122 -457 l-15 -53 -216 0 -215 0 5 23 c3 12
16 65 30 117 14 52 44 165 66 250 45 173 61 231 68 243 2 4 101 7 219 7 200 0
215 -1 210 -17z m-556 -1 c0 -4 -5 -23 -11 -42 -14 -46 -58 -211 -74 -280 -18
-78 -75 -281 -81 -292 -3 -4 -129 -8 -280 -8 l-274 0 0 308 c0 170 3 312 7
315 9 10 713 9 713 -1z m-1613 -10 c6 -4 30 -79 53 -167 23 -88 53 -203 67
-255 38 -147 43 -164 43 -178 0 -10 -55 -12 -257 -10 l-257 3 -34 130 c-18 72
-47 182 -63 245 -55 207 -58 221 -45 226 6 2 110 5 231 7 121 1 227 3 235 5 8
1 20 -2 27 -6z m771 -299 l-3 -308 -239 0 -240 0 -12 45 c-6 25 -24 90 -39
145 -44 164 -105 406 -105 416 0 5 130 9 320 9 l320 0 -2 -307z m-641 -1246
c54 -28 103 -77 129 -128 52 -105 21 -260 -66 -329 -48 -38 -131 -70 -180 -70
-59 0 -143 36 -190 81 -141 137 -100 365 80 449 36 17 59 20 120 17 44 -2 88
-11 107 -20z m1468 -1 c55 -25 119 -90 140 -140 35 -86 26 -187 -26 -261 -35
-51 -60 -72 -123 -101 -64 -30 -128 -31 -197 -3 -129 50 -193 160 -175 301 12
95 91 189 181 217 58 18 147 12 200 -13z"/>
</g>
</svg>
